<svg xmlns="http://www.w3.org/2000/svg" xmlns:xlink="http://www.w3.org/1999/xlink" viewBox="0 0 29 29"><path fill-rule="evenodd" d="M0 0V7H7V0zM1 1H6V6H1zM9 0h1V1H9zm2 0V3H10V4H8V5h2V7h1V4h1V2h2V1H12V0zm3 0h1V1H14zm5 0h1V2h1V4H20V5h1V8H19V7h1V6H19V5H18V4H17V3h1V2H17V1h2zm3 0h7V7H22zm1 1h5V6H23zM8 1H9V2H8zM2 2H5V5H2zM9 2h1V3H9zm6 0h1V3H15zm9 0V5h3V2zM13 3h1V5H13V9h1v1H13v1H12V10H11V9h1V4h1zm3 1h1V5H16zM14 5h2V6H15V7H14zM8 6H9V7H8zm8 0V7h1V6zm2 0h1V7H18zM17 7h1V9H17zM0 8V9H1V8zM2 8H3v2H1V9H2zM4 8H5V9H6v1H4zM6 8H7V9H6zM9 8h2V9H9zM24 8h1V9H24zm3 0V9h1V8zM16 9h1v1H16zm4 0h1v1H20zm2 0v1H21v1h2V9zm3 0v1h1V9zm3 0v1H26v1h1v2h1v1H27v3h1v1H27v2h1V19h1V16H28V15h1V12H28V11h1V9zM3 10H4v2H3zm3 0h5v1H10v2H8v1H7V13H6v1H7v1H6v1H5v1H4V15H3V14H0V12H1v1H4v1H5V12H9V11H6zm8 0h1v1h1v1H15v2H14V12H13V11h1zm3 0h1v1h1v1H18v2H16V13h1zm7 0v1H23v1h2V10zM1 11H2v1H1zm10 0h1v1H11zm1 1h1v2H12zm7 0v2h3v1H20v1H19v1h2V16h1v1H21v2H19v4h1v3h1V25h2v2h1v1H23v1h2V27h1V26H25V24h1V22H25V20h1V19H25V18H23v1H22V18h1V17h1V16H23V12zm2 9v3h3V21zm4 -9v2H24v1h1v3h2V17H26V12zM13 14h1v1H13zM0 15H1v1H3v1H4v1H8V15H9v1h1v1H9v1h1V17h1v3h1V18h1v1h1V18h1v1h1V17h1v2h1v2H17v1H16V21H15v1H14V20H13v2H12V21H11v1H8V21H6V20H7V19H6v1H4v1H2V20H3V18H1V17H0zm8 4H9v1H8zm4 -4h1v1H12zm3 0h1v2H15zm2 0h2v1H18v1H17zM6 16H7v1H6zm7 1h1v1H13zM0 18H1v1H0zm18 0v1h1V18zM1 19H2v1H1zM0 20H1v1H0zm26 1v1h1v1h1v2H26v1h2v1h1V21zM0 22H7v7H0zm1 1H6v5H1zM11 22v2H8v1H9v1H8v1h3V25h2V23H12V22zm2 0h1v1H13zm9 0v1h1V22zm-6 1h3v2H17v1h1v1h1V26h1v1h2v2H19V28H18v1H17V27H16V25H15V24h1zM2 24H5v3H2zm11 1v1h1V25zm-1 1h1v1H12zm2 0v2h2V27H15V26zm-3 1v1h1V27zm16 0h1v1h1v1H27zM8 28h2v1H8zm4 0h2v1H12z"/></svg>
