<svg xmlns="http://www.w3.org/2000/svg" xmlns:xlink="http://www.w3.org/1999/xlink" viewBox="0 0 29 29"><path fill-rule="evenodd" d="M7 0V7H0V0zM6 1V6H1V1zM1 9H0v1H1zm3 1H3v1H0v1H1v2H2V12H4V11H7V10H5V8H4zM0 15V14H1v1zm8 6V19H7v1H6V19H5V18H4V17H3v1H2V17H1v2H0v1H2v1H4V20H5v1zM7 22H0v7H7zM1 28H6V23H1zM2 9H1V8H2zM2 2H5V5H2zM2 9v1H3V9zm0 6v1H3V15zm3 9v3H2V24zM9 12V11h1v1h1v1H10v1H9V13H5v1H3V13H4V12zM4 16v1H5V16zM5 14H7v1H6v1H5zM7 9H6V8H7zm0 7v1H6V16zM6 18v1H7V18zM7 17v1H9V17zM9 0V1H8V0zM8 3V2H9V1h1V3zm2 1H8V5H9V6h1zM8 7H9V6H8zm1 4H8V9H9zM8 24v1H9V24zm1 3v1H8V27zM9 16v1h1V16zm0 5h1V20H9zm2 2H9V22h1V21h1zm-1 3V25H9v1zm3 1H11V26H10v2H9v1h2V28h1v1h3V28h1v1h3V28h1V27H18v1H17V27H14v1H13zM12 4H10V3h2zM12 1V0h2V3h1V4h2V5H16V6H15V7H14V6H13V7h1V8H13v2H11v1H10V6h1V9h1V5h2V4H13V1zM10 15h1v1h1V15h2V14H12V13H11v1H10zm3 2V16h1v2H12v1H11V18H10V17zm-2 6v1H10v1h2V23zM11 1V2h1V1zm0 11h1V11H11zm1 1V12h2v1zm3 9H14V19H12v4h4v1h1V23h1V22h1v1H18v2h1v1h1V25h2v1h2V25h2v1h1V25h2V23H28v1H27V23H25V21h1V20H23V19H19v2H17v1H16V21h1V19H16v1H15zm9 -1v3H21V21zM14 24v1H12v1h5v1h1V25H15V24zM14 13v1h1V13zm3 4V16h2V15H18V14h1V13H18V12h2V11H17V10h1V9H17v1H16V9H15V8h3V4H17V3H16V1H15V0h2V1h1V3h2V2h1V4H20V6H19V7h1V6h1V8h1v3H21v1h1v1H20v1h2v1H21v1h1v1H21v1H19V17zM19 8V9h1V8zm-3 5H15V12h1zm1 3V15H15v1zm0 1v1H16v1H15V17zM16 7h1V6H16zm2 7H17V13h1zM18 0V1h1V0zm1 18v1H18V18zM19 2h1V1H19zM20 0V1h1V0zm7 29V28H26V26H25v2H23V27H22V26H21v3zM22 0h7V7H22zm1 6h5V1H23zm-1 5h2V8h1V9h1V8h1v3H25v2H23V12H22zm0 2v1h1V13zm1 9v1H22V22zm6 -5H27V16H25V15H24v1H23v3h2V17h1v1h1v1H26v1h1v2h2V19H28V18h1zM27 2V5H24V2zM26 13H25v1h1zm1 0H26V12h1zm0 2v1h1V14H26v1zm1 -4v1H27V11zm1 16v2H28V28H27V27zM28 10h1V8H28zm1 4H28V12h1z"/></svg>
